<?xml version="1.0" encoding="UTF-8" standalone="no"?>
<!DOCTYPE svg PUBLIC "-//W3C//DTD SVG 1.1//EN" "http://www.w3.org/Graphics/SVG/1.1/DTD/svg11.dtd">
<svg version="1.1" xmlns="http://www.w3.org/2000/svg" xmlns:xlink="http://www.w3.org/1999/xlink" preserveAspectRatio="xMidYMid meet" viewBox="0 0 640 640" width="640" height="640"><defs><path d="M497.77 80.7C504.37 74.13 507.99 65.33 507.99 55.96C507.99 46.57 504.37 37.79 497.77 31.2C495.68 29.1 478.89 12.33 476.79 10.23C470.21 3.63 461.41 0 452.04 0C442.66 0 433.87 3.63 427.29 10.23C398.78 38.74 170.72 266.79 142.22 295.29C135.6 301.9 131.98 310.73 132.01 320.12C131.98 329.55 135.6 338.37 142.22 344.98C170.7 373.46 398.54 601.29 427.02 629.77C433.61 636.37 442.4 640 451.78 640C461.15 640 469.94 636.37 476.53 629.77C478.63 627.67 495.41 610.9 497.51 608.8C511.16 595.15 511.16 572.94 497.51 559.29C481.57 543.35 401.85 463.63 258.35 320.14C402.01 176.48 481.81 96.66 497.77 80.7Z" id="c1iTKcfmbw"></path></defs><g><g><g><use xlink:href="#c1iTKcfmbw" opacity="1" fill="#ffffff" fill-opacity="1"></use><g><use xlink:href="#c1iTKcfmbw" opacity="1" fill-opacity="0" stroke="#000000" stroke-width="1" stroke-opacity="0"></use></g></g></g></g></svg>